<svg id="Слой_1" data-name="Слой 1" xmlns="http://www.w3.org/2000/svg" viewBox="0 0 910.69 517.05"><defs><style>.cls-1{fill:#f29500;}.cls-2{fill:#ffa90b;}.cls-3{fill:#ffc14f;}</style></defs><title>bubble-chat1</title><path class="cls-1" d="M490.6,250.7c-47.62,8.5-146,39-35.25,138.8,3,2.8-2.62,5.9-7.87,4.4C392,378.2,234.32,344.1,119.4,422.2a242.87,242.87,0,0,0-49.12,44c-2.25,2.6-9.37,2.4-11.06-.3C37.85,430.1-62.26,295.7-321.16,395c-5.44,2.1-12-1.4-8.44-4.3,41.81-33.1,87.74-97.6-83.61-153.4-4.12-1.3-3.56-4.7.94-5.6,17.62-3.8,52.86-12.1,85.67-25.5,63.37-25.8,118.86-70.4,27.56-138-2.44-1.9,2.25-4,5.25-2.4C-143.06,146.1,7.67,160.3,75,50.6c1.87-3.1,10.31-2.8,11.44.3,40.11,106.5,215.78,86.2,386.56,24,5.44-2,12,1.6,8.25,4.4-52.11,39.1-162,137.7,9.38,165.3C496,245.6,496,249.8,490.6,250.7Z" transform="translate(416 0.05)"/><path class="cls-2" d="M490.58,250.7c-47.71,8.5-146.32,39-35.31,138.8,3,2.8-2.63,5.9-7.89,4.4-55.6-15.7-213.57-49.8-328.71,28.3C92.75,381.5-9.43,259.6-259.82,355.5c-5.44,2.1-12-1.4-8.45-4.3,39.82-31.4,83.4-91.3-59.73-145,63.49-25.8,119.09-70.4,27.61-138-2.44-1.9,2.26-4,5.26-2.4,150.46,80,301.66,95.3,369.47-15.2,1.88-3.1,10.33-2.8,11.46.3C126,157.4,302,137.1,473.11,74.9c5.45-2,12,1.6,8.26,4.4-52.21,39.1-162.28,137.7,9.4,165.3C496,245.6,496,249.8,490.58,250.7Z" transform="translate(416 0.05)"/><path class="cls-3" d="M-68.1,33.17C-82.7,17.67-108.7-.63-149.7.47a7.6,7.6,0,0,0-7.4,7.8,7.6,7.6,0,0,0,7.8,7.4c28.2-.8,51.6,8.5,69.7,27.4a96.92,96.92,0,0,1,19.2,29.5,7.63,7.63,0,0,0,7.2,5.1A7.65,7.65,0,0,0-46,67.57,109.8,109.8,0,0,0-68.1,33.17Z" transform="translate(416 0.05)"/><path class="cls-3" d="M319.1,76.6c31,5.7,58.4-4.7,79.9-28.5a129.24,129.24,0,0,0,23.6-37.9A7.61,7.61,0,1,0,408.3,5c-.3.7-25.8,67.8-86.5,56.7a7.57,7.57,0,0,0-2.7,14.9Z" transform="translate(416 0.05)"/><path class="cls-3" d="M387.76,473.1c-37.6-.6-68.8-11-92.8-30.9-17.9-14.8-24.9-29.7-25-30a7.58,7.58,0,0,0-10-3.8,7.66,7.66,0,0,0-3.8,10.1c.3.7,8.2,17.7,28.4,34.8,28.4,23.9,67.1,35,103.1,35a7.6,7.6,0,0,0,.1-15.2Z" transform="translate(416 0.05)"/><path class="cls-3" d="M-175.56,408.32a7.54,7.54,0,0,0-9.9,4.1c-.1.2-8.1,18.8-25.7,39.1-23.4,26.9-51.8,43.9-84.5,50.4-9.8,2-7,16.9,3,14.9,35.7-7.2,68-26.5,93.3-55.8,19.1-22.1,27.5-42,27.9-42.8A7.71,7.71,0,0,0-175.56,408.32Z" transform="translate(416 0.05)"/><path class="cls-2" d="M-6.77,434.71l-21.4-3.1a4.83,4.83,0,0,1-3.6-2.6l-9.6-19.4a4.75,4.75,0,0,0-8.5,0l-9.6,19.4a4.66,4.66,0,0,1-3.6,2.6l-21.4,3.1a4.74,4.74,0,0,0-2.6,8.1l15.5,15.1a5.06,5.06,0,0,1,1.4,4.2l-3.7,21.4a4.75,4.75,0,0,0,6.9,5l19.2-10.1a4.87,4.87,0,0,1,4.4,0l19.2,10.1a4.76,4.76,0,0,0,6.9-5l-3.7-21.4a4.51,4.51,0,0,1,1.4-4.2l15.5-15.1A4.76,4.76,0,0,0-6.77,434.71Z" transform="translate(416 0.05)"/><path class="cls-2" d="M-304.9,113.6l-16.6-2.4a3.52,3.52,0,0,1-2.7-2l-7.4-15a3.62,3.62,0,0,0-6.5,0l-7.4,15a3.69,3.69,0,0,1-2.7,2l-16.6,2.4a3.61,3.61,0,0,0-2,6.2l12,11.7a3.2,3.2,0,0,1,1,3.2l-2.8,16.5a3.6,3.6,0,0,0,5.3,3.8l14.8-7.8a3.44,3.44,0,0,1,3.4,0l14.8,7.8a3.65,3.65,0,0,0,5.3-3.8l-2.8-16.5a3.69,3.69,0,0,1,1-3.2l12-11.7A3.66,3.66,0,0,0-304.9,113.6Z" transform="translate(416 0.05)"/><path class="cls-2" d="M235.7,56.5a3.61,3.61,0,0,0-2-6.2l-16.6-2.4a3.52,3.52,0,0,1-2.7-2l-7.4-15a3.62,3.62,0,0,0-6.5,0l-7.5,15a3.69,3.69,0,0,1-2.7,2l-16.6,2.4a3.61,3.61,0,0,0-2,6.2l12,11.7a3.48,3.48,0,0,1,1.1,3.2l-2.9,16.5a3.6,3.6,0,0,0,5.3,3.8L202,83.9a3.44,3.44,0,0,1,3.4,0l14.8,7.8a3.65,3.65,0,0,0,5.3-3.8l-2.8-16.5a3.48,3.48,0,0,1,1.1-3.2Z" transform="translate(416 0.05)"/></svg>